<?xml version="1.0" standalone="no"?>
<!DOCTYPE svg PUBLIC "-//W3C//DTD SVG 20010904//EN"
 "http://www.w3.org/TR/2001/REC-SVG-20010904/DTD/svg10.dtd">
<svg version="1.0" xmlns="http://www.w3.org/2000/svg"
 width="1912.000000pt" height="1912.000000pt" viewBox="0 0 1912.000000 1912.000000"
 preserveAspectRatio="xMidYMid meet">
<metadata>
Created by potrace 1.14, written by Peter Selinger 2001-2017
</metadata>
<g transform="translate(0.000000,1912.000000) scale(0.100000,-0.100000)"
fill="#000000" stroke="none">
<path d="M9331 19108 c-113 -8 -153 -17 -420 -94 -269 -77 -317 -94 -531 -191
-229 -104 -238 -109 -425 -246 -551 -406 -663 -496 -839 -680 l-167 -175 -249
-407 -249 -408 -116 -348 -117 -349 -5 -443 c-5 -405 7 -934 33 -1509 5 -97 3
-138 -4 -138 -6 0 -49 -25 -95 -54 l-83 -55 -52 -193 c-28 -106 -69 -292 -90
-413 l-39 -220 9 -210 c9 -219 37 -421 98 -707 29 -136 31 -140 115 -283 82
-137 94 -152 219 -271 l133 -127 -4 -46 c-3 -29 19 -182 61 -421 l66 -375 105
-233 c74 -165 128 -269 187 -359 l82 -127 -53 -791 c-28 -434 -55 -812 -59
-840 l-7 -50 -217 -27 -216 -28 -379 -141 c-208 -78 -630 -226 -938 -329 -308
-104 -888 -301 -1290 -440 -647 -222 -823 -278 -1550 -491 -521 -152 -833
-249 -855 -263 -19 -13 -221 -154 -449 -314 l-414 -291 -264 -270 -263 -269 0
-2741 0 -2741 9560 0 9560 0 0 2526 0 2526 -176 221 c-174 221 -177 224 -528
547 -195 179 -388 357 -430 394 l-76 69 -705 183 -705 183 -992 330 c-546 181
-1169 386 -1384 455 l-391 126 -389 211 -389 211 -417 96 -418 96 0 943 0 944
85 147 c47 82 123 237 170 347 70 165 97 242 150 442 63 240 64 243 70 410 3
92 8 178 11 191 4 21 9 22 102 22 l97 0 136 138 c119 120 147 155 221 277 85
138 86 142 117 280 63 286 90 470 101 693 l10 213 -40 217 c-22 119 -60 287
-84 372 -25 85 -49 174 -55 197 -10 37 -19 46 -101 97 -50 31 -95 56 -100 56
-5 0 -35 -11 -66 -25 -31 -14 -59 -25 -63 -25 -3 0 5 330 18 732 23 714 23
740 7 1011 l-17 278 -110 306 -111 307 -200 353 c-171 304 -229 395 -404 642
l-204 288 -253 241 -254 241 -308 175 -307 176 -287 99 -286 99 -261 31 c-268
32 -356 35 -573 19z"/>
</g>
</svg>
